<svg width="50.000000" height="50.000244" viewBox="0 0 50 50.0002" fill="none" xmlns="http://www.w3.org/2000/svg" xmlns:xlink="http://www.w3.org/1999/xlink">
	<desc>
			Created with Pixso.
	</desc>
	<defs/>
	<path id="Vector" d="M49.41 35.77C47.47 35.38 46.01 36.78 44.17 34.69C43.69 34.14 43 34.45 42.78 35.12C41.2 39.89 37.93 37.58 36.43 34.24C36.13 33.59 35.31 33.65 35.01 34.24C33.97 37.19 31.97 37.55 29.01 35.33C28.54 34.85 27.77 35.01 27.6 35.76C26.31 41.25 21.81 39.74 20.42 35.24C20.35 35.01 20.2 34.9 20.04 34.88C19.73 34.42 19.01 34.28 18.77 34.93C16.99 39.56 13.7 38.85 11.65 34.93C11.28 34.22 10.52 34.47 10.27 35.14C8.55 39.91 3.53 39.8 3.62 34.07C3.63 33.43 2.81 33.31 2.67 33.92C1.05 41.06 8.57 42.3 11.18 37.06C13.87 40.61 17.91 41.34 19.83 36.56C21.47 41.8 26.83 42.83 28.83 37.61C31.36 39.58 33.77 39.27 35.67 36.48C37.99 40.33 42.12 41.75 43.96 37C45.64 38.32 46.76 37.39 49.2 37.62C50.11 37.71 50.32 35.95 49.41 35.77Z" fill="#00B2A0" fill-opacity="1.000000" fill-rule="nonzero"/>
	<path id="Vector" d="M46.37 43.46C45.61 44.92 45.34 46.22 43.71 46.93C41.7 47.81 39.7 45.72 38.71 44C38.37 43.41 37.54 43.3 37.22 44C35.82 47.1 32.72 46.34 31.4 43.36C31.07 42.62 29.97 42.75 29.84 43.59C29.1 48.22 25.76 48.71 23.52 45.36C23.77 44.45 22.5 43.84 22.15 44.72C20.27 49.5 16.61 48.97 14.49 44.7C14.12 43.96 13.29 44.22 13.05 44.92C11.33 49.98 8.63 47.58 7.12 44.09C6.83 43.41 5.99 43.65 5.82 44.29C4.99 47.28 3.63 47.84 1.34 48.62C0.91 48.76 0.98 49.63 1.45 49.56C4.07 49.15 5.51 48.61 6.58 46.34C8.78 50.34 11.86 51.15 13.92 46.95C16.6 50.84 20.9 51.28 23.03 46.65C25.39 50.39 29.36 50.21 30.95 46.13C33 48.94 35.98 49.34 38.05 46.19C41.12 49.78 47.4 50.58 47.62 43.86C47.65 43.06 46.71 42.82 46.37 43.46Z" fill="#00B2A0" fill-opacity="1.000000" fill-rule="nonzero"/>
	<path id="Vector" d="M14.11 7.5C13.59 7.67 13.39 8.12 13.4 8.58C9.76 9.2 7.4 13.38 7.12 17.58C6.73 23.33 10.94 26.7 15.49 26.28C20.15 25.84 23.19 21 23.05 15.8C22.91 10.6 18.67 5.95 14.11 7.5ZM14.86 23.65C11.52 23.97 9.36 21.34 9.42 17.58C9.49 13.64 12.09 11.03 15.1 9.99C15.16 9.97 15.2 9.94 15.24 9.91C18.18 10.45 20.41 11.75 20.72 15.8C21.04 20 18.39 23.31 14.86 23.65Z" fill="#00B2A0" fill-opacity="1.000000" fill-rule="nonzero"/>
	<path id="Vector" d="M9.87 7.33C9.32 6.63 8.71 6.02 8.09 5.42C7.47 4.83 6.82 3.67 5.95 3.77C5.49 3.82 5.17 4.16 5.14 4.7C5.08 5.74 5.96 6.25 6.6 6.77C7.33 7.38 8.09 7.92 8.77 8.6C9.52 9.37 10.55 8.19 9.87 7.33Z" fill="#00B2A0" fill-opacity="1.000000" fill-rule="nonzero"/>
	<path id="Vector" d="M4.82 10.44C5.11 10.49 4.86 10.44 4.78 10.41C4.66 10.36 4.54 10.31 4.43 10.26C4.3 10.2 4.17 10.14 4.04 10.08C4.03 10.07 4.02 10.07 4.01 10.06C3.89 9.79 3.67 9.57 3.4 9.47C2.91 9.29 2.17 8.86 1.64 9.05C1.34 9.16 1.03 9.45 0.97 9.83C0.97 9.83 0.97 9.83 0.97 9.83C0.91 10.2 0.94 10.67 1.22 10.92C1.37 11.06 1.55 11.16 1.74 11.24C1.59 11.24 1.71 11.25 1.85 11.29C1.95 11.32 2.04 11.36 2.15 11.4C2.39 11.49 2.63 11.59 2.87 11.69C3.01 11.74 3.16 11.75 3.29 11.72C3.79 11.87 4.33 12.05 4.82 12.01C5.71 11.95 5.67 10.56 4.82 10.44Z" fill="#00B2A0" fill-opacity="1.000000" fill-rule="nonzero"/>
	<path id="Vector" d="M3.3 19.25C2.93 19.62 2.5 19.9 2.08 20.17C1.86 20.31 1.63 20.46 1.4 20.56C1.26 20.62 1.03 20.57 1.34 20.64C1.19 20.6 1.04 20.6 0.89 20.58C-0.4 20.42 -0.28 23.12 1.14 22.72C1.66 22.57 2.19 21.99 2.64 21.62C3.15 21.19 3.67 20.72 4.09 20.17C4.58 19.54 3.85 18.72 3.3 19.25Z" fill="#00B2A0" fill-opacity="1.000000" fill-rule="nonzero"/>
	<path id="Vector" d="M6.58 24.6C6.15 25.38 5.75 26.18 5.33 26.98C4.88 27.83 4.12 28.47 4.02 29.5C3.96 30.16 4.58 30.48 5.03 30.39C5.97 30.22 6.42 28.84 6.76 27.95C7.12 27.02 7.33 26.06 7.61 25.11C7.83 24.37 6.92 24 6.58 24.6Z" fill="#00B2A0" fill-opacity="1.000000" fill-rule="nonzero"/>
	<path id="Vector" d="M15.4 27.39C15.31 26.85 14.58 26.87 14.47 27.39C14.19 28.77 13.86 30.13 13.58 31.5C13.52 31.83 13.57 32.22 13.8 32.46C13.76 32.4 13.77 32.41 13.81 32.49C14.08 33 14.65 32.94 14.93 32.49C14.67 32.9 15.11 32.29 15.13 32.26C15.23 32.05 15.24 31.84 15.25 31.61C15.27 31.13 15.32 30.66 15.36 30.19C15.44 29.26 15.55 28.31 15.4 27.39Z" fill="#00B2A0" fill-opacity="1.000000" fill-rule="nonzero"/>
	<path id="Vector" d="M25.09 28.2C24.42 27.09 23.36 26.38 22.76 25.23C22.34 24.44 21.39 25.13 21.71 25.94C21.99 26.64 22.41 27.23 22.85 27.8C23.06 28.08 23.28 28.35 23.46 28.64C23.71 29.05 23.82 29.51 24.31 29.59C24.59 29.63 24.91 29.57 25.05 29.23C25.07 29.2 25.08 29.17 25.09 29.14C25.21 28.86 25.26 28.49 25.09 28.2Z" fill="#00B2A0" fill-opacity="1.000000" fill-rule="nonzero"/>
	<path id="Vector" d="M28.98 19.91C27.85 19.97 26.73 20.04 25.61 20.11C24.59 20.16 24.59 21.87 25.61 21.93C26.73 21.99 27.85 22.06 28.98 22.13C30.21 22.2 30.21 19.83 28.98 19.91Z" fill="#00B2A0" fill-opacity="1.000000" fill-rule="nonzero"/>
	<path id="Vector" d="M28.98 7.09C27.96 7.07 27.13 8.49 26.52 9.32C25.87 10.2 25.29 11.17 24.62 12.04C24.11 12.71 24.9 13.64 25.47 13.03C26.14 12.3 26.75 11.5 27.4 10.75C27.77 10.32 28.15 9.89 28.56 9.53C29.07 9.08 29.47 8.94 29.7 8.2C29.87 7.65 29.43 7.11 28.98 7.09Z" fill="#00B2A0" fill-opacity="1.000000" fill-rule="nonzero"/>
	<path id="Vector" d="M24.08 1.29C23.48 1.74 23.07 2.47 22.66 3.14C22.18 3.92 21.72 4.7 21.16 5.41C20.53 6.21 21.51 7.37 22.19 6.61C22.72 6.01 23.18 5.37 23.64 4.7C24.13 3.99 24.77 3.34 25.17 2.56C25.58 1.78 24.76 0.78 24.08 1.29Z" fill="#00B2A0" fill-opacity="1.000000" fill-rule="nonzero"/>
	<path id="Vector" d="M16.54 0.22C16.25 -0.08 15.86 -0.08 15.57 0.22C14.99 0.81 15.26 1.85 15.31 2.64C15.36 3.55 15.42 4.45 15.49 5.36C15.56 6.2 16.55 6.2 16.62 5.36C16.69 4.45 16.75 3.55 16.81 2.64C16.85 1.85 17.12 0.81 16.54 0.22Z" fill="#00B2A0" fill-opacity="1.000000" fill-rule="nonzero"/>
</svg>
