<svg width="60.000000" height="63.000000" viewBox="0 0 60 63" fill="none" xmlns="http://www.w3.org/2000/svg" xmlns:xlink="http://www.w3.org/1999/xlink">
	<desc>
			Created with Pixso.
	</desc>
	<defs/>
	<path id="W" d="M16.02 29.51L11.4 29.51L15.76 41.13L12.6 49.27L5.32 29.44L0 29.44L10.18 55L14.47 55L18.93 44.26L23.43 55L27.72 55L37.94 29.44L32.54 29.44L25.3 49.27L22.06 41.13L26.46 29.51L21.88 29.51L18.93 37.97L16.02 29.51Z" fill="#FFFFFF" fill-opacity="1.000000" fill-rule="evenodd"/>
	<path id="W" d="M38.02 8.51L33.4 8.51L37.76 20.13L34.6 28.27L27.32 8.44L22 8.44L32.18 34L36.47 34L40.93 23.26L45.43 34L49.72 34L59.94 8.44L54.54 8.44L47.3 28.27L44.06 20.13L48.46 8.51L43.88 8.51L40.93 16.97L38.02 8.51Z" fill="#FFFFFF" fill-opacity="1.000000" fill-rule="evenodd"/>
</svg>
