<svg width="647.178711" height="141.992188" viewBox="0 0 647.179 141.992" fill="none" xmlns="http://www.w3.org/2000/svg" xmlns:xlink="http://www.w3.org/1999/xlink">
	<desc>
			Created with Pixso.
	</desc>
	<defs/>
	<path id="WAWE" d="M89.01 0.39L63.37 0.39L87.59 64.99L70.01 110.2L29.58 0L0 0L56.59 141.99L80.41 141.99L105.17 82.37L130.17 141.99L154 141.99L210.79 0L180.81 0L140.57 110.2L122.6 64.99L147.02 0.39L121.58 0.39L105.17 47.41L89.01 0.39ZM280.79 0L252.81 0L200.37 141.99L228.79 141.99L241.78 106.59L291.39 106.59L304.57 141.99L332.99 141.99L280.79 0ZM411.61 0.39L385.97 0.39L410.19 64.99L392.62 110.2L352.19 0L322.6 0L379.19 141.99L403.02 141.99L427.77 82.37L452.77 141.99L476.6 141.99L533.39 0L503.41 0L463.17 110.2L445.2 64.99L469.62 0.39L444.18 0.39L427.77 47.41L411.61 0.39ZM647.17 141.99L647.17 117.77L576.18 117.77L576.18 80.81L635.99 80.81L635.99 58.39L576.18 58.39L576.18 24.16L645.42 24.16L645.42 0L548.59 0L548.59 141.99L647.17 141.99ZM266.78 28.61L286.41 87.2L246.42 87.2L266.78 28.61Z" fill="#0D302C" fill-opacity="1.000000" fill-rule="evenodd"/>
</svg>
