<svg width="50.000000" height="50.000000" viewBox="0 0 50 50" fill="none" xmlns="http://www.w3.org/2000/svg" xmlns:xlink="http://www.w3.org/1999/xlink">
	<desc>
			Created with Pixso.
	</desc>
	<defs>
		<clipPath id="clip1_224">
			<rect id="vector" width="50.000000" height="50.000000" fill="white" fill-opacity="0"/>
		</clipPath>
	</defs>
	<rect id="vector" width="50.000000" height="50.000000" fill="#FFFFFF" fill-opacity="0"/>
	<g clip-path="url(#clip1_224)">
		<path id="Shape" d="M45.3906 16.7959L43.7566 18.4299C40.2162 15.344 35.6766 13.6179 30.9566 13.6179C27.7787 13.6179 24.6025 14.4351 21.8792 15.887L28.7779 8.98828C29.3226 9.35083 29.9575 9.53296 30.5941 9.53296C31.5013 9.53296 32.4102 9.17041 33.1353 8.4436C34.5872 6.9917 34.5872 4.72095 33.1353 3.26904C32.4085 2.54224 31.5013 2.17969 30.5941 2.17969C29.6868 2.17969 28.7779 2.54224 28.0528 3.26904C26.8732 4.54053 26.691 6.35498 27.5081 7.7168L18.7932 16.4316L17.1592 14.7976L12.7115 19.2451L14.3455 20.8792L5.44855 29.7764C4.90381 29.4138 4.26892 29.2317 3.63232 29.2317C2.7251 29.2317 1.81616 29.5942 1.09106 30.321C-0.36084 31.7729 -0.36084 34.0435 1.09106 35.4954C1.81787 36.1304 2.7251 36.4946 3.63232 36.4946C4.53961 36.4946 5.44855 36.1321 6.17365 35.4053C7.35321 34.2256 7.53534 32.4094 6.71832 30.9575L13.617 24.0588C9.98639 31.0496 10.8034 39.7644 16.1583 45.9363L14.5243 47.6606L19.0638 52.1082L23.5115 47.6606L19.0638 43.2129L17.52 44.7568C12.2553 38.583 11.983 29.6877 16.4307 23.1516L17.1575 23.8784L21.697 19.4307L20.88 18.7039C23.7855 16.6155 27.326 15.5261 30.9566 15.5261C35.2238 15.5261 39.217 17.0698 42.4851 19.7932L40.8511 21.3372L45.3906 25.7849L49.8383 21.3372L45.3906 16.7976L45.3906 16.7959ZM29.3226 4.63062C29.6851 4.26807 30.1396 4.08594 30.5941 4.08594C31.0485 4.08594 31.5013 4.26807 31.8655 4.63062C32.5923 5.35742 32.5923 6.44678 31.8655 7.17188C31.503 7.53442 31.0485 7.71655 30.5941 7.71655C30.1396 7.71655 29.6868 7.53442 29.3226 7.17188C28.5958 6.53711 28.5958 5.35571 29.3226 4.63062ZM17.0673 21.3337L15.1609 19.4275L17.0673 17.521L18.9736 19.4275L17.0673 21.3337ZM43.4843 21.3337L45.3906 23.24L47.297 21.3337L45.3906 19.4272L43.4843 21.3337ZM3.63062 34.678C4.08508 34.678 4.53955 34.4958 4.9021 34.1333L4.9021 34.1316C5.62897 33.4966 5.62897 32.3171 4.9021 31.5903C4.5379 31.2278 4.08508 31.0457 3.63062 31.0457C3.17615 31.0457 2.72168 31.2261 2.35913 31.5903C1.99658 31.9546 1.81445 32.4072 1.81445 32.8618C1.81445 33.4065 1.99658 33.8608 2.35913 34.1333C2.72339 34.4958 3.17615 34.678 3.63062 34.678ZM19.0638 49.5669L20.9702 47.6606L19.0638 45.7542L17.1575 47.6606L19.0638 49.5669Z" clip-rule="evenodd" fill="#333333" fill-opacity="1.000000" fill-rule="evenodd"/>
	</g>
</svg>
